<svg viewBox="0 0 220 400" xmlns="http://www.w3.org/2000/svg">
  <!-- Phone frame -->
  <rect x="0" y="0" width="220" height="400" rx="20" fill="#333" />
  <rect x="10" y="10" width="200" height="380" rx="10" fill="#fff" />
  
  <!-- App header -->
  <rect x="10" y="10" width="200" height="60" rx="10" fill="#2e86de" />
  <text x="30" y="45" font-family="Arial" font-size="16" fill="#fff">Patient List</text>
  
  <!-- Search bar -->
  <rect x="20" y="80" width="180" height="30" rx="15" fill="#f5f5f5" />
  <text x="40" y="100" font-family="Arial" font-size="12" fill="#999">Search patients...</text>
  
  <!-- Patient items -->
  <rect x="20" y="120" width="180" height="60" rx="5" fill="#f9f9f9" />
  <circle cx="45" cy="150" r="15" fill="#ddd" />
  <rect x="70" y="135" width="80" height="10" rx="2" fill="#333" />
  <rect x="70" y="155" width="120" height="6" rx="2" fill="#999" />
  
  <rect x="20" y="190" width="180" height="60" rx="5" fill="#f9f9f9" />
  <circle cx="45" cy="220" r="15" fill="#ddd" />
  <rect x="70" y="205" width="100" height="10" rx="2" fill="#333" />
  <rect x="70" y="225" width="120" height="6" rx="2" fill="#999" />
  
  <rect x="20" y="260" width="180" height="60" rx="5" fill="#f9f9f9" />
  <circle cx="45" cy="290" r="15" fill="#ddd" />
  <rect x="70" y="275" width="90" height="10" rx="2" fill="#333" />
  <rect x="70" y="295" width="120" height="6" rx="2" fill="#999" />
  
  <!-- Bottom navigation -->
  <rect x="10" y="350" width="200" height="40" rx="10" fill="#f5f5f5" />
  <circle cx="50" cy="370" r="10" fill="#2e86de" />
  <circle cx="110" cy="370" r="10" fill="#ccc" />
  <circle cx="170" cy="370" r="10" fill="#ccc" />
</svg>